<?xml version="1.0" encoding="UTF-8" standalone="no"?>
<!-- Created with Inkscape (http://www.inkscape.org/) -->

<svg
   xmlns:dc="http://purl.org/dc/elements/1.1/"
   xmlns:cc="http://creativecommons.org/ns#"
   xmlns:rdf="http://www.w3.org/1999/02/22-rdf-syntax-ns#"
   xmlns:svg="http://www.w3.org/2000/svg"
   xmlns="http://www.w3.org/2000/svg"
   xmlns:sodipodi="http://sodipodi.sourceforge.net/DTD/sodipodi-0.dtd"
   xmlns:inkscape="http://www.inkscape.org/namespaces/inkscape"
   width="192"
   height="192"
   viewBox="0 0 192 192"
   id="svg5460"
   version="1.1"
   inkscape:version="0.91 r13725"
   sodipodi:docname="Android Icon Keylines.svg"
   inkscape:export-filename="D:\580_GTDone!\ic_launcher.png"
   inkscape:export-xdpi="90"
   inkscape:export-ydpi="90">
  <defs
     id="defs5462" />
  <sodipodi:namedview
     id="base"
     pagecolor="#ffffff"
     bordercolor="#666666"
     borderopacity="1.0"
     inkscape:pageopacity="0.0"
     inkscape:pageshadow="2"
     inkscape:zoom="1.4786634"
     inkscape:cx="-29.750236"
     inkscape:cy="45.520054"
     inkscape:document-units="px"
     inkscape:current-layer="layer1"
     showgrid="true"
     units="px"
     inkscape:window-width="1920"
     inkscape:window-height="1018"
     inkscape:window-x="-8"
     inkscape:window-y="-8"
     inkscape:window-maximized="1"
     inkscape:snap-bbox="true"
     inkscape:bbox-nodes="true"
     inkscape:bbox-paths="true"
     inkscape:snap-text-baseline="true"
     inkscape:snap-nodes="true"
     inkscape:object-nodes="true"
     inkscape:snap-center="true"
     inkscape:object-paths="true"
     inkscape:snap-smooth-nodes="true">
    <inkscape:grid
       type="xygrid"
       id="grid6008"
       empspacing="4" />
  </sodipodi:namedview>
  <metadata
     id="metadata5465">
    <rdf:RDF>
      <cc:Work
         rdf:about="">
        <dc:format>image/svg+xml</dc:format>
        <dc:type
           rdf:resource="http://purl.org/dc/dcmitype/StillImage" />
        <dc:title></dc:title>
      </cc:Work>
    </rdf:RDF>
  </metadata>
  <g
     inkscape:label="Zeichenebene"
     inkscape:groupmode="layer"
     id="layer1"
     transform="translate(0,-860.36216)"
     style="display:inline" />
  <g
     inkscape:groupmode="layer"
     id="layer5"
     inkscape:label="Keyline: Vertical rectangle (176×128dp)"
     style="display:inline"
     sodipodi:insensitive="true">
    <path
       style="opacity:1;fill:#000000;fill-opacity:0.2;fill-rule:nonzero;stroke:none;stroke-width:14.17322826;stroke-linecap:round;stroke-linejoin:round;stroke-miterlimit:4;stroke-dasharray:none;stroke-dashoffset:0;stroke-opacity:1"
       d="M 0,0 0,192 192,192 192,0 0,0 Z m 16,32 160,0 a 8,8 0 0 1 8,8 l 0,112 a 8,8 0 0 1 -8,8 L 16,160 A 8,8 0 0 1 8,152 L 8,40 a 8,8 0 0 1 8,-8 z"
       id="rect7245"
       inkscape:connector-curvature="0" />
  </g>
  <g
     inkscape:groupmode="layer"
     id="layer4"
     inkscape:label="Keyline: Horizontal rectangle (128×176dp)"
     style="display:none"
     sodipodi:insensitive="true">
    <path
       style="opacity:1;fill:#000000;fill-opacity:0.2;fill-rule:nonzero;stroke:none;stroke-width:14.17322826;stroke-linecap:round;stroke-linejoin:round;stroke-miterlimit:4;stroke-dasharray:none;stroke-dashoffset:0;stroke-opacity:1"
       d="M 0,0 0,192 192,192 192,0 0,0 Z m 40,8 112,0 a 8,8 0 0 1 8,8 l 0,160 a 8,8 0 0 1 -8,8 l -112,0 a 8,8 0 0 1 -8,-8 L 32,16 a 8,8 0 0 1 8,-8 z"
       id="rect7239"
       inkscape:connector-curvature="0" />
  </g>
  <g
     inkscape:groupmode="layer"
     id="layer2"
     inkscape:label="Keyline: Square (152dp)"
     style="display:none"
     sodipodi:insensitive="true">
    <path
       style="opacity:1;fill:#000000;fill-opacity:0.2;fill-rule:nonzero;stroke:none;stroke-width:14.17322826;stroke-linecap:round;stroke-linejoin:round;stroke-miterlimit:4;stroke-dasharray:none;stroke-dashoffset:0;stroke-opacity:1"
       d="M 0,0 0,192 192,192 192,0 0,0 Z m 28,20 136,0 a 8,8 0 0 1 8,8 l 0,136 a 8,8 0 0 1 -8,8 l -136,0 a 8,8 0 0 1 -8,-8 L 20,28 a 8,8 0 0 1 8,-8 z"
       id="rect7232"
       inkscape:connector-curvature="0" />
  </g>
  <g
     inkscape:groupmode="layer"
     id="layer3"
     inkscape:label="Keyline: Circle (176dp)"
     sodipodi:insensitive="true"
     style="display:none">
    <path
       style="opacity:1;fill:#000000;fill-opacity:0.2;fill-rule:nonzero;stroke:none;stroke-width:14.17322826;stroke-linecap:round;stroke-linejoin:round;stroke-miterlimit:4;stroke-dasharray:none;stroke-dashoffset:0;stroke-opacity:1"
       d="M 0,0 0,192 192,192 192,0 0,0 Z M 96,8 A 88,88 0 0 1 184,96 88,88 0 0 1 96,184 88,88 0 0 1 8,96 88,88 0 0 1 96,8 Z"
       id="rect7150"
       inkscape:connector-curvature="0" />
  </g>
</svg>
